<?xml version="1.0" encoding="utf-8"?>
<!-- Generator: Adobe Illustrator 19.0.0, SVG Export Plug-In . SVG Version: 6.00 Build 0)  -->
<svg version="1.1" id="Layer_1" xmlns="http://www.w3.org/2000/svg" xmlns:xlink="http://www.w3.org/1999/xlink" x="0px" y="0px"
	 viewBox="265 -312.1 629 724.1" style="enable-background:new 265 -312.1 629 724.1;" xml:space="preserve">
<style type="text/css">
	.st0{fill:none;}
</style>
<g>
	<path class="st0" d="M894-312.1c-7.9,3.8-16.1,7.2-23.7,11.5c-13.5,7.6-27.7,13.7-42.4,18.5c-12.8,4.2-25.4,8.8-37.8,13.8
		c-15.4,6.2-30.5,13-45.7,19.5c-6.7,2.8-13.6,5.3-20.4,7.9c-10,3.8-12.8,9.2-9.6,19.5c1,3.3,2.4,6.5,3.5,9.8
		c-0.7,0.6-1.1,1.3-1.7,1.5c-6,2.3-12.1,4.5-18.1,6.8c-20,7.8-40.6,7.1-61.4,4.2c-12-1.6-24-3.1-36.1-4c-9.6-0.8-19.4,0.3-28.8-1.1
		c-22-3.2-43.1,2.4-64.2,6.5c-18.5,3.6-36.1,11.1-53.1,19.7c-15.3,7.7-30.2,16.1-45.7,23.3c-15,6.9-30.7,12.4-45.9,19.1
		c-5.7,2.5-11.5,5.6-15.9,9.8c-4.2,3.9-8.2,6.8-13.8,8.2c-8.5,2.2-16,6.2-20.8,14c-3.3,5.3-2.1,10.9-1.2,16.5
		c1.3,8.1,0.3,17.2,8.3,23c0.1,0.1,0,0.6,0,0.6c-5.4,2-10.8,3.7-16,6c-8.1,3.6-17.4,6.1-18.5,17.2c-0.3,2.7-0.2,5.6,0.2,8.3
		c2.5,14,1.9,29.6,17.7,37.3c0.1,0.1,0.1,0.3,0.5,1.2c-2.9,1.5-5.9,3.4-9.1,4.5c-5.3,1.8-10.8,3.2-16.2,4.6
		c-3.1,0.8-4.3,2.3-4.1,5.6c0.6,10.2,4.3,19.2,10.8,26.8c5.5,6.3,12.1,11.7,18.4,17.6c-3.4,2.6-6,4-7.6,6.1c-1.6,2.1-3.4,5-3.2,7.4
		c1,10.2,5.7,19,13.8,25c9.2,6.8,19,12.8,28.8,18.7c6.9,4.2,14.2,7.9,21.4,11.6c12.8,6.6,26,12.7,38.6,19.6
		c11.8,6.4,23.1,13.6,34.7,20.5"/>
	<path class="st0" d="M894-310.1c0,100.3,0,200.7,0,301c-4.8,2.6-9.6,5.2-14.5,7.7c-23.2,11.9-46.4,23.7-69.6,35.6
		c-3.1,1.6-5.7,1.1-7.1-2.1c-2.4-5.4-4.9-10.9-6.7-16.5c-4.2-13.3-7.3-26.9-12.2-40c-9.4-25.2-19.9-50-27.6-75.8
		c-5.6-18.9-11.9-37.6-18.1-56.4c-7.2-21.8-14.7-43.4-21.7-65.2c-3.1-9.7-0.7-13.9,9-17.5c0.8-0.3,1.6-0.5,2.3-0.8
		c10.7-4.4,21.5-8.6,32.2-13.2c12.9-5.6,25.6-11.5,38.5-17.1c4.9-2.1,10-3.6,15-5.4c14.8-5.5,29.7-10.4,44.2-16.6
		C870.3-297.6,882-304.1,894-310.1z M757.4-235.2c-10.8-0.4-21.1,8.4-21.5,18.4c-0.4,8.7,9,19.4,17.2,19.6
		c11.3,0.2,21.8-9.3,22.1-20C775.5-228.5,769.3-234.8,757.4-235.2z"/>
	<path d="M429.7,174.2c-11.5-6.9-22.9-14.1-34.7-20.5c-12.7-6.9-25.8-13-38.6-19.6c-7.2-3.7-14.5-7.4-21.4-11.6
		c-9.8-5.9-19.6-11.9-28.8-18.7c-8.1-6-12.9-14.8-13.8-25c-0.2-2.4,1.5-5.3,3.2-7.4c1.7-2.1,4.3-3.5,7.6-6.1
		c-6.3-5.9-12.9-11.2-18.4-17.6c-6.5-7.5-10.2-16.6-10.8-26.8c-0.2-3.4,1-4.8,4.1-5.6c5.4-1.4,10.9-2.8,16.2-4.6
		c3.2-1.1,6.1-3,9.1-4.5C303,5.3,303,5,302.9,5c-15.9-7.7-15.2-23.3-17.7-37.3c-0.5-2.7-0.5-5.5-0.2-8.3
		c1.1-11.1,10.4-13.6,18.5-17.2c5.2-2.3,10.6-4,16-6c0,0,0.1-0.5,0-0.6c-7.9-5.8-7-14.8-8.3-23c-0.9-5.5-2.1-11.2,1.2-16.5
		c4.9-7.8,12.3-11.9,20.8-14c5.5-1.4,9.6-4.3,13.8-8.2c4.4-4.2,10.2-7.3,15.9-9.8c15.2-6.6,30.9-12.1,45.9-19.1
		c15.5-7.2,30.5-15.6,45.7-23.3c16.9-8.6,34.5-16.1,53.1-19.7c21.1-4.1,42.2-9.7,64.2-6.5c9.5,1.4,19.3,0.3,28.8,1.1
		c12.1,1,24.1,2.4,36.1,4c20.8,2.9,41.4,3.6,61.4-4.2c6-2.3,12.1-4.5,18.1-6.8c0.6-0.2,1-0.9,1.7-1.5c-1.2-3.3-2.5-6.5-3.5-9.8
		c-3.1-10.2-0.4-15.7,9.6-19.5c6.8-2.6,13.7-5,20.4-7.9c15.3-6.4,30.4-13.3,45.7-19.5c12.4-5,25.1-9.6,37.8-13.8
		c14.8-4.8,28.9-10.9,42.4-18.5c7.7-4,15.8-7.4,23.7-11.2c0,0.7,0,1.3,0,2c-12,6-23.8,12.5-36.1,17.8c-14.5,6.1-29.4,11.1-44.2,16.6
		c-5,1.8-10.1,3.3-15,5.4c-12.9,5.6-25.6,11.5-38.5,17.1c-10.7,4.6-21.4,8.8-32.2,13.2c-0.8,0.3-1.6,0.5-2.3,0.8
		c-9.7,3.6-12.1,7.8-9,17.5c7,21.8,14.5,43.5,21.7,65.2c6.2,18.7,12.5,37.4,18.1,56.4c7.7,25.9,18.2,50.6,27.6,75.8
		c4.8,13,8,26.7,12.2,40c1.8,5.6,4.3,11.1,6.7,16.5c1.4,3.2,4,3.6,7.1,2.1c23.2-11.9,46.4-23.7,69.6-35.6c4.9-2.5,9.7-5.2,14.5-7.7
		c0,1,0,2,0,3c-9.2,4.6-18.4,9.1-27.5,13.8c-18,9.2-36,18.6-54,27.9c-7.3,3.8-12.7,0.7-15.3-8.4c-1.3-4.6-2.8-9.1-4.5-14.4
		c-12.1,5.1-24.3,9-34.7,16.5c-14.9,10.6-30.3,20.8-42.4,34.5c-10.5,11.9-20.3,24.5-29.3,37.6c-13.7,20-26.5,40.7-39.3,61.3
		c-6.4,10.4-11.9,21.4-17.7,32.2c-5.8,10.7-12.2,21-16.9,32.1c-6,14-10,28.9-15.9,42.9c-6.8,16.2-8.2,33.3-9,50.3
		c-0.5,12,2.4,24.1,3.8,36.1c1.1,9.1,2.6,18.1,3.5,27.2c0.8,8.4-0.5,9.4-9.1,8.7c-1.7-0.1-4,0.7-5.2,1.9
		c-9.3,9.4-21.1,10.2-32.5,7.9c-6.1-1.2-12.1-6.4-16.6-11.3c-4.6-5-8.3-11.3-10.6-17.8c-7.9-22-11.8-44.9-13.7-68.2
		c-1.1-13.7-1.7-27.5-1.4-41.3c0.2-10.5,1.1-21.3,3.7-31.4c2.1-8,6.9-15.3,11-22.7c8.4-15,17.1-29.9,26.6-46.3
		c-3.9,1-6.5,1.7-9.1,2.3c-21.6,5-41.9,13.7-62,23 M477.2,186c21.7-10.1,44-18.8,67.2-24.9c1.6-0.4,3.5-1.8,4-3.3
		c5.4-14,7.9-28.4,3.8-43.3c-0.3-1.3-0.3-2.6-0.4-4c4.4,7,5.1,14.8,4.4,22.4c-1.3,14.1-5,27.6-12.6,39.9
		c-7.3,11.9-14,24.1-20.9,36.2c-3.7,6.6-8.1,13.2-10.4,20.3c-4.8,14.6-6.3,29.9-5.5,45.2c1.6,28.3,3.6,56.7,12,84
		c2.2,7.1,3.5,14.9,7.4,21c12.2,19,23.8,26.1,45.3,18.2c3.2-1.2,5.8-3.8,9.3-6.1c-1.7-0.9-2.3-1.2-2.8-1.5
		c-14.1-7-17-11.1-15.4-26.4c1-10.2,1.9-20.4,2.6-30.7c0.3-4,0.2-7.9,0.2-11.9c0-5.1,3.1-7.2,7.5-7.4c3.9-0.2,7.8,0.4,11.7,0.7
		c1.2-8.4,1.5-17.2,3.9-25.4c4.2-15,8.9-29.9,14.8-44.3c6.3-15.5,13.8-30.4,21.4-45.4c6.9-13.6,13.4-27.5,21.9-40.1
		c18.7-27.6,34.3-57.2,56-82.9c10.5-12.5,21.2-24.2,34.3-33.7c10.5-7.6,21-15.2,32.1-21.8c7.2-4.3,15.3-7,23.4-10.5
		c-3.1-10.6-5.6-21.1-9.2-31.3c-7.5-20.9-16-41.6-23.4-62.5c-4.4-12.3-7.4-25.2-11.4-37.6c-6.4-19.6-13.1-39-19.7-58.6
		c-3.3-9.8-6.5-19.5-9.5-28.4c-11.6,3.7-22.7,8.2-34.1,10.5c-11.4,2.3-23.2,2.3-34.9,3.4c2.7,19-4.4,62.1-13.2,77.1
		c0.1-1.9,0-3,0.2-4c3.8-15.1,8.4-30.1,11.1-45.4c1.5-8.6,0.2-17.7-0.3-26.6c-0.1-1.3-2.3-3.3-3.7-3.6c-4.5-0.9-9.2-1.3-13.8-1.6
		c-18.9-1.3-37.8-2.5-56.7-3.9c-12.6-0.9-25.2-1.9-37.7,1.1c-4.8,1.1-9.7,2.4-14.7,2.8c-22.1,2-42.6,10-61.8,19.7
		c-32.3,16.3-63.8,34.2-98.3,45.7c-2.1,0.7-4,1.9-6,2.9c0.9,0.7,1.6,0.8,2.2,0.6c25.3-6.7,50.7-12.9,77-14.5
		c18.4-1.1,37.9,6.7,45.7,27.8c3.1,8.5,1.6,16.6-1.1,24.8c4.8,2.9,9.1,6.1,13.9,8.3c14.6,6.6,18.7,20.7,24.8,33.5
		c0.5,1.1,0.2,2.6,0.3,4c0.3,8.3-3,15.6-6.8,22.7c-1.8,3.4-2.5,6.6-0.7,10.3c1.1,2.3,1.9,5.2,1.6,7.7c-0.9,6.9-2.3,13.7-3.8,20.5
		c-0.5,2.3-0.8,3.8,1.6,5.4c11.8,7.6,16.6,24.9,10.6,37.7c-2.3,4.9-5.6,9.6-11.1,10.8c-14.7,3.2-29.3,2.3-43.4-3.1
		c-1.4-0.5-3.3-0.8-4.5-0.2c-6,2.7-11.7,6.3-17.9,8.5c-8.7,3.1-17.6,6.6-27.1,3.9c-3.4-1-6.7-2.6-10-4c0.2-0.7,0.4-1.3,0.6-2
		c8.8,3.7,17.6,5.6,27.2,3c9.2-2.6,17.4-6.7,25.4-11.1c-4.3-3.7-8.3-7.1-12.2-10.5c0.4-0.5,0.8-0.9,1.1-1.4c3.2,2.5,6.1,5.4,9.5,7.3
		c15.6,8.8,32.3,11.1,49.6,7.1c3.3-0.7,6.7-3.3,8.8-6c6-7.9,4.9-16.7,2.3-25.6c-1.8-5.9-4.6-10.8-10.6-13
		c-7.7-2.8-15.5-5.8-23.5-7.4c-3.8-0.8-8.7,0.6-11.1,5c-2,3.6-2.8,7.4,0.3,10.6c4.2,4.4,8.5,8.9,13.3,12.7
		c7.9,6.2,16.2,11.8,24.3,17.6c-2.1,0-4.5-0.4-6.3-1.5c-12.1-7.1-23.1-15.6-32.5-26c-5.7-6.4-2.3-16.8,5.9-18.9
		c0.8-0.2,1.5-0.5,2.3-0.8c0-0.6,0-1.2,0-1.8c-12.8-1.7-25.7-3.5-39.8-5.4c2,10.2,3.7,18.7,5.5,27.3c-0.4,0.1-0.9,0.1-1.3,0.2
		c-1.9-8.4-3.9-16.7-6.1-26.2c-6.1,1.9-12.7,3.4-18.8,6.1c-16.9,7.6-33.5,15.8-50.4,23.4c-9.8,4.4-20.1,7.9-29.9,12.5
		c-12.7,6-25.2,12.6-37.7,19c-7.2,3.7-9.7,8.8-6.4,16c2.7,5.8,5.8,12.5,10.8,15.8c17.9,11.7,36.6,22.3,55.1,33
		c5.4,3.1,11.5,5.1,17,8.2c14,7.9,27.9,16.1,41.8,24.3c8.9,5.2,17.4,11,26.4,16 M479.6,10.1C475.5,5.9,471,1.6,466.8-3
		c-5.7-6.2-4.1-15,2.3-20.3c10.3-8.6,29.5-5.8,39.2,3c-0.7-2.4-1.4-5-3.1-6.6c-5.3-5-10.8-9.9-16.6-14.2
		c-12.5-9.2-26.9-12.8-42.1-13.3c-6-0.2-12.7-0.8-18.1,1.4c-13,5.3-25.5,12.2-38.2,18.3c-7.9,3.8-15.9,7.5-23.9,11.2
		c-7.8,3.6-16,6.7-23.6,10.7c-7.9,4.2-15,10.2-23.1,13.6c-12.8,5.4-24.5,13.6-38.6,15.7c-4.7,0.7-6,3.8-4.9,7.9
		c1.2,4.5,1.9,9.5,4.5,13.1c7.3,9.8,15.5,18.8,22.7,27.4c6.8-2.6,12.1-4.4,17.2-6.7c13.6-6.2,27-12.8,40.5-19.1
		c9.9-4.6,19.9-8.9,29.9-13.4c9.3-4.3,18.6-8.7,27.9-13c11.4-5.2,23.1-8.9,36-6.4C463.1,8,471.5,8.9,479.6,10.1z M433.3-57
		c18.9-0.3,36.9,2.3,52.5,11.5c0.4-6.2,0.6-12.3,1.2-18.3c0.3-3.3,2.3-4.5,5.8-4.5c6.8,0.1,12.1,3.2,17.6,6.9
		c-1.4-3.4-2.7-7.3-5.3-9.2c-9.5-6.9-19-14.1-29.3-19.5c-10.6-5.6-22.1-9.7-33.5-13.8c-11.7-4.2-23.5-4.9-34.3,2.9
		c-3.6,2.6-7.1,5.5-10.7,8.1c-3.1,2.2-6,5-9.5,6.3c-11.6,4.5-23.4,8.4-35.1,12.7c-11.4,4.2-22.7,8.5-34,12.8c-7.9,3-15.9,5.8-23.7,9
		c-6.1,2.5-8.8,8.1-8.8,14c-0.1,11,2.9,21.7,6.9,31.9c0.6,1.5,2.3,2.9,3.7,3.9C300,0,303.4,2,307.2,4.4c6.1-3,12.5-6.1,18.8-9.4
		c7.9-4.3,15.4-9.2,23.4-13.1c15.2-7.4,30.7-14.2,46-21.4c8-3.7,15.6-8,23.7-11.4c12.3-5.1,14.6-9,11.4-22.1c-0.3-1.3-0.8-2.6-1-3.9
		c-0.2-1.1,0-2.3,0-3.5c0.7,0,1.3-0.1,2-0.1C432.2-72.7,432.7-65,433.3-57z M322.6-64.1c4-1.7,7.7-3.6,11.6-5
		c13.9-4.9,28-9.4,41.8-14.6c8.3-3.1,16.3-6.6,23.2-12.9c9.5-8.7,20.5-15.5,35.3-11.4c-2.5-10.3,3.7-14.1,11.3-16.6
		c7.3-2.4,14.7-4.4,22.1-6.7c-5.9-5.5-13.8-9.2-22-9.7c-11.1-0.6-22.5,0.3-33.5,2c-14.7,2.2-29.4,5.4-43.8,9.1
		c-6.1,1.5-12.8,1.1-18,7.3c-3.3,4-10.6,4.6-16.1,6.7c-4,1.5-8.4,2.4-12,4.6c-4.6,2.8-10.4,5.9-10.3,12
		C312.6-87,311.4-73.9,322.6-64.1z M592.4,389.7c-0.4-6-0.5-11.5-1.1-17c-1.9-15.9-4.2-31.7-6.1-47.6c-1-8-3.1-9.9-11.3-9.4
		c-4,0.2-6.1,1.8-6.1,6.1c0.1,5.5,0.1,10.9-0.3,16.4c-0.6,8.6-2.1,17.1-2.3,25.7c-0.1,5.3,0,11.8,2.9,15.6
		C573.4,386.7,581.6,390.5,592.4,389.7z M506.5,18.3c1.3-6.8,3.1-13.3,3.5-19.8c0.4-7.8-1.5-16.7-8.4-20.2c-9.2-4.8-19.8-8-30.1-0.4
		c-6.5,4.8-7.9,11.6-2.7,17.8c1.9,2.3,3.7,4.8,5.9,6.7c5,4.1,9.9,8.7,15.5,11.7C494.6,16.4,500.1,16.7,506.5,18.3z M478.2-92.7
		c0.5-5.7,2-11.4,1.4-17c-0.8-7.8-4.4-14.8-11.9-18.4c-4.7-2.3-27.7,6.6-30.5,11.2c-2,3.3-1.4,8.7,1.2,9.7
		C451.2-102.5,464-97.9,478.2-92.7z M510.2-24.9c1.3-2.8,2.6-5.6,3.9-8.5c6.5-14.4-4.9-29.3-16.4-31.9c-7.1-1.6-8.8-0.7-9.4,6.3
		c-0.3,3.4,0.2,6.9,0.6,10.4c0.4,4,1.7,7.1,5.5,9.8C500.1-34.9,504.9-29.7,510.2-24.9z"/>
	<path d="M757.4-235.2c11.9,0.4,18.2,6.7,17.8,18c-0.3,10.7-10.9,20.2-22.1,20c-8.2-0.2-17.6-10.9-17.2-19.6
		C736.3-226.8,746.6-235.6,757.4-235.2z M773.1-218.5c0.3-8.8-5.9-14.3-16.4-14.7c-8.3-0.3-18.2,8.5-18.4,16.5
		c-0.3,7.6,8,17.4,14.9,17.6C763.7-198.8,772.8-207.6,773.1-218.5z"/>
	<path class="st0" d="M447,182.4c-9-5-17.5-10.7-26.4-16c-13.9-8.2-27.8-16.4-41.8-24.3c-5.5-3.1-11.6-5-17-8.2
		c-18.5-10.7-37.2-21.3-55.1-33c-4.9-3.2-8.1-10-10.8-15.8c-3.3-7.2-0.8-12.3,6.4-16c12.5-6.4,25-13,37.7-19c9.8-4.6,20-8,29.9-12.5
		c16.9-7.6,33.5-15.9,50.4-23.4c6.1-2.7,12.7-4.2,18.8-6.1c2.2,9.5,4.2,17.9,6.1,26.2c0.4-0.1,0.9-0.1,1.3-0.2
		c-1.7-8.5-3.4-17.1-5.5-27.3c14.1,1.9,26.9,3.7,39.8,5.4c0,0.6,0,1.2,0,1.8c-0.8,0.3-1.5,0.6-2.3,0.8c-8.2,2.1-11.6,12.6-5.9,18.9
		c9.4,10.4,20.4,18.9,32.5,26c1.9,1.1,4.2,1.4,6.3,1.5c-8.1-5.8-16.5-11.4-24.3-17.6c-4.8-3.8-9.1-8.2-13.3-12.7
		c-3.1-3.3-2.3-7-0.3-10.6c2.5-4.5,7.3-5.8,11.1-5c8,1.6,15.8,4.6,23.5,7.4c5.9,2.1,8.8,7.1,10.6,13c2.7,8.9,3.8,17.7-2.3,25.6
		c-2.1,2.7-5.6,5.3-8.8,6c-17.3,3.9-34.1,1.7-49.6-7.1c-3.5-2-6.4-4.9-9.5-7.3c-0.4,0.5-0.8,0.9-1.1,1.4c3.9,3.4,7.9,6.8,12.2,10.5
		c-8,4.4-16.3,8.5-25.4,11.1c-9.6,2.7-18.3,0.8-27.2-3c-0.2,0.7-0.4,1.3-0.6,2c3.3,1.3,6.5,3,10,4c9.5,2.7,18.4-0.7,27.1-3.9
		c6.2-2.2,11.9-5.8,17.9-8.5c1.2-0.6,3.2-0.3,4.5,0.2c14.2,5.4,28.7,6.3,43.4,3.1c5.5-1.2,8.8-5.9,11.1-10.8
		c6.1-12.8,1.2-30-10.6-37.7c-2.5-1.6-2.2-3-1.6-5.4c1.5-6.8,2.9-13.6,3.8-20.5c0.3-2.5-0.4-5.4-1.6-7.7c-1.8-3.8-1.1-6.9,0.7-10.3
		c3.8-7.1,7.1-14.3,6.8-22.7c-0.1-1.3,0.2-2.8-0.3-4c-6-12.8-10.1-26.9-24.8-33.5c-4.8-2.2-9.2-5.4-13.9-8.3
		c2.6-8.2,4.2-16.3,1.1-24.8c-7.8-21.2-27.3-28.9-45.7-27.8c-26.3,1.6-51.7,7.8-77,14.5c-0.6,0.2-1.3,0.1-2.2-0.6c2-1,3.9-2.2,6-2.9
		c34.5-11.5,66-29.4,98.3-45.7c19.2-9.7,39.7-17.7,61.8-19.7c4.9-0.4,9.8-1.7,14.7-2.8c12.5-2.9,25.1-2,37.7-1.1
		c18.9,1.4,37.8,2.5,56.7,3.9c4.6,0.3,9.3,0.7,13.8,1.6c1.5,0.3,3.7,2.3,3.7,3.6c0.5,8.9,1.8,18,0.3,26.6
		c-2.7,15.3-7.3,30.3-11.1,45.4c-0.2,1-0.1,2.1-0.2,4c8.8-15,15.9-58.1,13.2-77.1c11.6-1,23.5-1.1,34.9-3.4
		c11.5-2.3,22.5-6.8,34.1-10.5c3,8.9,6.2,18.7,9.5,28.4c6.6,19.5,13.3,39,19.7,58.6c4,12.5,7,25.3,11.4,37.6
		c7.5,21,15.9,41.6,23.4,62.5c3.6,10.1,6.1,20.6,9.2,31.3c-8.1,3.6-16.2,6.2-23.4,10.5c-11.1,6.7-21.6,14.2-32.1,21.8
		c-13.1,9.5-23.8,21.2-34.3,33.7c-21.7,25.7-37.3,55.3-56,82.9c-8.5,12.5-15.1,26.5-21.9,40.1c-7.5,14.9-15.1,29.9-21.4,45.4
		c-5.8,14.4-10.5,29.3-14.8,44.3c-2.3,8.2-2.6,16.9-3.9,25.4c-3.9-0.3-7.8-0.8-11.7-0.7c-4.4,0.2-7.6,2.3-7.5,7.4
		c0,4,0.1,8-0.2,11.9c-0.8,10.2-1.6,20.5-2.6,30.7c-1.6,15.3,1.3,19.3,15.4,26.4c0.6,0.3,1.2,0.6,2.8,1.5c-3.5,2.3-6.1,5-9.3,6.1
		c-21.5,7.9-33.1,0.7-45.3-18.2c-3.9-6.1-5.2-13.9-7.4-21c-8.4-27.4-10.4-55.7-12-84c-0.9-15.3,0.6-30.6,5.5-45.2
		c2.3-7.1,6.7-13.7,10.4-20.3c6.8-12.1,13.6-24.3,20.9-36.2c7.6-12.3,11.2-25.8,12.6-39.9c0.7-7.6,0-15.4-4.4-22.4
		c0.1,1.3,0,2.7,0.4,4c4.1,14.9,1.6,29.3-3.8,43.3c-0.5,1.4-2.5,2.9-4,3.3c-23.2,6.2-45.5,14.9-67.2,24.9 M561.6,91
		c-24.5-55.1-29.1-112-19.5-170.6c-0.6,0.4-0.9,0.7-1,1.1c-8.2,29.9-5.7,60.4-3.2,90.6c1.1,13.9,5,27.7,8.6,41.2
		c2.9,11,7.1,21.6,11,32.4C558.2,87.8,560.2,89.3,561.6,91z M747.2-21.8c-21.1,5.4-95.2,83.4-98.8,103.9
		C675.3,41.8,705.8,4.8,747.2-21.8z M693.9-160.3c-0.1,18.7,31,104.9,38.8,110.1C716.8-85.6,703.3-122.2,693.9-160.3z M419.6,82.1
		c-0.4-0.3-0.8-0.7-1.3-1c-12.9,12.8-17.2,15.2-38.7,13.2c-3-0.3-6-0.4-9-0.2c-3.2,0.2-3.7,1.3-3.2,3.5c5.3-0.1,10.2-0.5,15.2-0.2
		c8,0.5,15.8,0.3,23.3-3.2c1.3-0.6,3.6-0.6,4.9,0.2c9.3,5.5,16.6,13,22.1,22.3c1.1,1.8,2.2,3.5,3.4,5.3c0.4-0.3,0.8-0.6,1.1-0.9
		c-5.8-12.6-15.1-22.1-26.3-29.5C414.2,88.2,416.9,85.1,419.6,82.1z M534.8,154.2c0.4-0.5,0.8-0.9,1.2-1.4c-0.6-0.7-1.2-1.6-1.9-2
		c-10.1-6-16.8-15.2-22-25.2c-6.9-13.2-12.7-27-18.9-40.6c-0.7-1.6-1.6-3.1-2.4-4.6c7.9,23.4,16.6,46.4,33.1,65.1
		C526.9,149,531.1,151.4,534.8,154.2z M738.8-32.4c0.1-0.6,0.1-1.2,0.2-1.8c-2.2-0.2-4.5-0.1-6.6-0.6c-4-1-8-2.1-11.7-3.8
		c-7.5-3.5-14.7-7.6-22.1-11.1c-4.9-2.3-10.2-3.9-15.3-5.6c-1.2-0.4-2.7-0.1-4.1-0.1c15,5.6,29.1,11.9,42.4,20.1
		C726.9-32.1,733-31.9,738.8-32.4z M457.2,78.1c13.9,17.4,18.3,37.6,23.3,57.6C483,123.8,466.4,82.2,457.2,78.1z M532.5,59.7
		c6.3,13.5,12.5,27,19.3,41.5C548.7,85,540.1,72.5,532.5,59.7z M570.2,138.9c-5.7,2.8-15.2,17.4-14.3,20
		C560.2,152.7,564.8,146.3,570.2,138.9z M524,77.5c-0.5,0.3-0.9,0.5-1.4,0.8c3.1,6.9,6.1,13.8,9.2,20.7c0.4-0.2,0.9-0.4,1.3-0.6
		C530,91.4,527,84.4,524,77.5z"/>
	<path class="st0" d="M479.6,10.1c-8.1-1.2-16.5-2.1-24.8-3.7c-12.9-2.5-24.6,1.2-36,6.4c-9.3,4.2-18.6,8.7-27.9,13
		c-9.9,4.5-20,8.8-29.9,13.4c-13.5,6.3-27,12.8-40.5,19.1c-5.1,2.3-10.4,4.1-17.2,6.7c-7.2-8.6-15.4-17.7-22.7-27.4
		c-2.6-3.5-3.3-8.6-4.5-13.1c-1-4,0.2-7.2,4.9-7.9c14.1-2.1,25.8-10.3,38.6-15.7c8.2-3.4,15.2-9.4,23.1-13.6
		c7.6-4,15.7-7.1,23.6-10.7c8-3.7,16-7.4,23.9-11.2c12.7-6.1,25.1-13,38.2-18.3c5.3-2.2,12-1.6,18.1-1.4
		c15.2,0.5,29.7,4.1,42.1,13.3c5.8,4.3,11.3,9.2,16.6,14.2c1.7,1.6,2.5,4.2,3.1,6.6c-9.7-8.9-29-11.6-39.2-3
		c-6.3,5.3-7.9,14.1-2.3,20.3C471.1,1.7,475.5,6,479.6,10.1z M440.1-5.7c3.6-3.5,3.7-17.4,0-23C440.1-21,440.1-13.4,440.1-5.7z"/>
	<path class="st0" d="M433.3-57c-0.6-8.1-1.2-15.8-1.8-23.5c-0.7,0-1.3,0.1-2,0.1c0,1.2-0.1,2.3,0,3.5c0.2,1.3,0.7,2.6,1,3.9
		c3.2,13.1,0.9,17-11.4,22.1c-8.1,3.3-15.8,7.7-23.7,11.4c-15.3,7.1-30.8,14-46,21.4c-8,3.9-15.5,8.9-23.4,13.1
		c-6.2,3.4-12.7,6.4-18.8,9.4C303.4,2,300,0,296.8-2.3c-1.4-1-3.1-2.3-3.7-3.9c-4-10.3-7-20.9-6.9-31.9c0-5.9,2.7-11.5,8.8-14
		c7.8-3.2,15.8-6.1,23.7-9c11.3-4.3,22.6-8.7,34-12.8c11.7-4.3,23.5-8.2,35.1-12.7c3.4-1.3,6.4-4.1,9.5-6.3
		c3.6-2.6,7.1-5.5,10.7-8.1c10.8-7.7,22.6-7.1,34.3-2.9c11.4,4.1,22.9,8.2,33.5,13.8c10.3,5.5,19.9,12.6,29.3,19.5
		c2.7,1.9,3.9,5.8,5.3,9.2c-5.5-3.7-10.8-6.8-17.6-6.9c-3.6-0.1-5.5,1.2-5.8,4.5c-0.6,6-0.8,12.1-1.2,18.3
		C470.2-54.6,452.2-57.2,433.3-57z M420.5-96.8c-0.4,0-0.9,0.1-1.3,0.1c0.8,8.5,1.7,16.9,2.5,25.4c0.3,0,0.6-0.1,1-0.1
		C421.9-79.8,421.2-88.3,420.5-96.8z"/>
	<path class="st0" d="M322.6-64.1c-11.2-9.7-9.9-22.9-10.2-35.3c-0.1-6,5.7-9.1,10.3-12c3.6-2.2,8-3.1,12-4.6
		c5.5-2.1,12.9-2.7,16.1-6.7c5.2-6.3,11.9-5.8,18-7.3c14.5-3.7,29.1-6.9,43.8-9.1c11-1.7,22.4-2.6,33.5-2c8.2,0.5,16.1,4.2,22,9.7
		c-7.4,2.2-14.8,4.3-22.1,6.7c-7.6,2.5-13.8,6.3-11.3,16.6c-14.8-4-25.8,2.7-35.3,11.4c-6.9,6.4-15,9.8-23.2,12.9
		c-13.8,5.2-27.9,9.7-41.8,14.6C330.3-67.7,326.5-65.9,322.6-64.1z M321.9-99c0.8,9.2,0.6,18.6,6.5,26.3
		C326.2-81.4,324-90.2,321.9-99z M420.1-113c2.4-4.5,1.7-15.6-1.6-19.3C419.1-125.7,419.6-119,420.1-113z"/>
	<path class="st0" d="M592.4,389.7c-10.8,0.8-19-3.1-24.4-10.2c-2.9-3.8-3-10.4-2.9-15.6c0.2-8.6,1.7-17.1,2.3-25.7
		c0.4-5.4,0.4-10.9,0.3-16.4c0-4.3,2.1-5.8,6.1-6.1c8.2-0.5,10.4,1.4,11.3,9.4c1.9,15.9,4.2,31.7,6.1,47.6
		C592,378.2,592.1,383.8,592.4,389.7z"/>
	<path class="st0" d="M506.5,18.3c-6.4-1.6-11.8-1.9-16.2-4.2c-5.6-3-10.5-7.5-15.5-11.7c-2.3-1.9-4-4.4-5.9-6.7
		c-5.2-6.2-3.8-13,2.7-17.8c10.3-7.6,20.9-4.4,30.1,0.4c6.8,3.5,8.8,12.4,8.4,20.2C509.6,5,507.7,11.4,506.5,18.3z"/>
	<path class="st0" d="M478.2-92.7c-14.2-5.2-27-9.8-39.7-14.5c-2.6-0.9-3.2-6.4-1.2-9.7c2.8-4.5,25.8-13.5,30.5-11.2
		c7.4,3.6,11.1,10.6,11.9,18.4C480.2-104.1,478.7-98.4,478.2-92.7z"/>
	<path class="st0" d="M510.2-24.9c-5.4-4.8-10.2-10-15.8-13.9c-3.8-2.6-5.1-5.8-5.5-9.8c-0.3-3.5-0.9-7-0.6-10.4
		c0.6-7,2.3-7.9,9.4-6.3c11.5,2.6,22.9,17.5,16.4,31.9C512.8-30.5,511.5-27.7,510.2-24.9z"/>
	<path class="st0" d="M773.1-218.5c-0.3,10.9-9.4,19.7-19.9,19.3c-6.9-0.2-15.2-10-14.9-17.6c0.3-7.9,10.2-16.8,18.4-16.5
		C767.2-232.8,773.3-227.3,773.1-218.5z"/>
	<path d="M561.6,91c-1.4-1.7-3.4-3.2-4.1-5.2c-3.9-10.7-8.1-21.4-11-32.4c-3.6-13.6-7.5-27.3-8.6-41.2c-2.4-30.2-4.9-60.7,3.2-90.6
		c0.1-0.4,0.4-0.8,1-1.1C532.5-21,537.1,35.8,561.6,91z"/>
	<path d="M747.2-21.8c-41.4,26.6-71.9,63.5-98.8,103.9C652,61.6,726.1-16.4,747.2-21.8z"/>
	<path d="M693.9-160.3c9.4,38.1,22.9,74.7,38.8,110.1C724.9-55.4,693.8-141.6,693.9-160.3z"/>
	<path d="M419.6,82.1c-2.7,3.1-5.4,6.1-8.4,9.5c11.1,7.4,20.5,16.9,26.3,29.5c-0.4,0.3-0.8,0.6-1.1,0.9c-1.1-1.8-2.3-3.5-3.4-5.3
		c-5.5-9.3-12.9-16.8-22.1-22.3c-1.2-0.7-3.5-0.8-4.9-0.2c-7.5,3.5-15.3,3.7-23.3,3.2c-4.9-0.3-9.9,0.1-15.2,0.2
		c-0.5-2.2,0-3.3,3.2-3.5c3-0.2,6-0.1,9,0.2c21.5,2,25.8-0.4,38.7-13.2C418.8,81.4,419.2,81.7,419.6,82.1z"/>
	<path d="M534.8,154.2c-3.7-2.9-7.9-5.3-10.9-8.7c-16.6-18.7-25.3-41.7-33.1-65.1c0.8,1.5,1.7,3,2.4,4.6c6.3,13.5,12,27.3,18.9,40.6
		c5.2,10,11.9,19.2,22,25.2c0.8,0.5,1.3,1.3,1.9,2C535.6,153.3,535.2,153.8,534.8,154.2z"/>
	<path d="M738.8-32.4c-5.9,0.5-11.9,0.3-17.2-2.9c-13.3-8.2-27.5-14.5-42.4-20.1c1.4,0,2.9-0.4,4.1,0.1c5.2,1.7,10.4,3.4,15.3,5.6
		c7.5,3.5,14.7,7.6,22.1,11.1c3.7,1.7,7.7,2.7,11.7,3.8c2.1,0.5,4.4,0.4,6.6,0.6C739-33.6,738.9-33,738.8-32.4z"/>
	<path d="M457.2,78.1c9.3,4,25.9,45.7,23.3,57.6C475.5,115.7,471.1,95.5,457.2,78.1z"/>
	<path d="M532.5,59.7c7.6,12.8,16.2,25.3,19.3,41.5C545,86.7,538.8,73.2,532.5,59.7z"/>
	<path d="M570.2,138.9c-5.3,7.4-9.9,13.9-14.3,20C555,156.2,564.5,141.7,570.2,138.9z"/>
	<path d="M524,77.5c3,7,6.1,13.9,9.1,20.9c-0.4,0.2-0.9,0.4-1.3,0.6c-3.1-6.9-6.1-13.8-9.2-20.7C523.1,78,523.5,77.7,524,77.5z"/>
	<path d="M440.1-5.7c0-7.7,0-15.3,0-22.9C443.9-23.1,443.7-9.1,440.1-5.7z"/>
	<path d="M420.5-96.8c0.7,8.5,1.4,16.9,2.1,25.4c-0.3,0-0.6,0.1-1,0.1c-0.8-8.5-1.7-16.9-2.5-25.4C419.6-96.7,420-96.7,420.5-96.8z"
		/>
	<path d="M321.9-99c2.2,8.8,4.3,17.5,6.5,26.3C322.5-80.4,322.6-89.8,321.9-99z"/>
	<path d="M420.1-113c-0.5-6-1-12.7-1.6-19.3C421.8-128.6,422.5-117.5,420.1-113z"/>
</g>
</svg>
